<svg width="100" height="100" viewBox="0 0 100 100" fill="none" xmlns="http://www.w3.org/2000/svg">
<rect width="100" height="100" fill="#F5F5F5"/>
<rect width="100" height="100" fill="white"/>
<mask id="path-1-outside-1_0_1" maskUnits="userSpaceOnUse" x="9" y="45" width="74" height="16" fill="black">
<rect fill="white" x="9" y="45" width="74" height="16"/>
<path d="M17.3239 50.7102C17.2784 50.2519 17.0833 49.8958 16.7386 49.642C16.3939 49.3883 15.9261 49.2614 15.3352 49.2614C14.9337 49.2614 14.5947 49.3182 14.3182 49.4318C14.0417 49.5417 13.8295 49.6951 13.6818 49.892C13.5379 50.089 13.4659 50.3125 13.4659 50.5625C13.4583 50.7708 13.5019 50.9527 13.5966 51.108C13.6951 51.2633 13.8295 51.3977 14 51.5114C14.1705 51.6212 14.3674 51.7178 14.5909 51.8011C14.8144 51.8807 15.053 51.9489 15.3068 52.0057L16.3523 52.2557C16.8598 52.3693 17.3258 52.5208 17.75 52.7102C18.1742 52.8996 18.5417 53.1326 18.8523 53.4091C19.1629 53.6856 19.4034 54.0114 19.5739 54.3864C19.7481 54.7614 19.8371 55.1913 19.8409 55.6761C19.8371 56.3883 19.6553 57.0057 19.2955 57.5284C18.9394 58.0473 18.4242 58.4508 17.75 58.7386C17.0795 59.0227 16.2708 59.1648 15.3239 59.1648C14.3845 59.1648 13.5663 59.0208 12.8693 58.733C12.1761 58.4451 11.6345 58.0189 11.2443 57.4545C10.858 56.8864 10.6553 56.1837 10.6364 55.3466H13.017C13.0436 55.7367 13.1553 56.0625 13.3523 56.3239C13.553 56.5814 13.8201 56.7765 14.1534 56.9091C14.4905 57.0379 14.8712 57.1023 15.2955 57.1023C15.7121 57.1023 16.0739 57.0417 16.3807 56.9205C16.6913 56.7992 16.9318 56.6307 17.1023 56.4148C17.2727 56.1989 17.358 55.9508 17.358 55.6705C17.358 55.4091 17.2803 55.1894 17.125 55.0114C16.9735 54.8333 16.75 54.6818 16.4545 54.5568C16.1629 54.4318 15.8049 54.3182 15.3807 54.2159L14.1136 53.8977C13.1326 53.6591 12.358 53.286 11.7898 52.7784C11.2216 52.2708 10.9394 51.5871 10.9432 50.7273C10.9394 50.0227 11.1269 49.4072 11.5057 48.8807C11.8883 48.3542 12.4129 47.9432 13.0795 47.6477C13.7462 47.3523 14.5038 47.2045 15.3523 47.2045C16.2159 47.2045 16.9697 47.3523 17.6136 47.6477C18.2614 47.9432 18.7652 48.3542 19.125 48.8807C19.4848 49.4072 19.6705 50.017 19.6818 50.7102H17.3239ZM25.3935 59.1705C24.5109 59.1705 23.7476 58.983 23.1037 58.608C22.4635 58.2292 21.9692 57.7027 21.6207 57.0284C21.2723 56.3504 21.098 55.5644 21.098 54.6705C21.098 53.7689 21.2723 52.9811 21.6207 52.3068C21.9692 51.6288 22.4635 51.1023 23.1037 50.7273C23.7476 50.3485 24.5109 50.1591 25.3935 50.1591C26.276 50.1591 27.0374 50.3485 27.6776 50.7273C28.3215 51.1023 28.8177 51.6288 29.1662 52.3068C29.5147 52.9811 29.6889 53.7689 29.6889 54.6705C29.6889 55.5644 29.5147 56.3504 29.1662 57.0284C28.8177 57.7027 28.3215 58.2292 27.6776 58.608C27.0374 58.983 26.276 59.1705 25.3935 59.1705ZM25.4048 57.2955C25.8063 57.2955 26.1416 57.1818 26.4105 56.9545C26.6795 56.7235 26.8821 56.4091 27.0185 56.0114C27.1586 55.6136 27.2287 55.161 27.2287 54.6534C27.2287 54.1458 27.1586 53.6932 27.0185 53.2955C26.8821 52.8977 26.6795 52.5833 26.4105 52.3523C26.1416 52.1212 25.8063 52.0057 25.4048 52.0057C24.9995 52.0057 24.6586 52.1212 24.3821 52.3523C24.1094 52.5833 23.9029 52.8977 23.7628 53.2955C23.6264 53.6932 23.5582 54.1458 23.5582 54.6534C23.5582 55.161 23.6264 55.6136 23.7628 56.0114C23.9029 56.4091 24.1094 56.7235 24.3821 56.9545C24.6586 57.1818 24.9995 57.2955 25.4048 57.2955ZM35.206 59.1705C34.312 59.1705 33.5431 58.9811 32.8991 58.6023C32.259 58.2197 31.7666 57.6894 31.4219 57.0114C31.081 56.3333 30.9105 55.553 30.9105 54.6705C30.9105 53.7765 31.0829 52.9924 31.4276 52.3182C31.776 51.6402 32.2704 51.1117 32.9105 50.733C33.5507 50.3504 34.312 50.1591 35.1946 50.1591C35.956 50.1591 36.6226 50.2973 37.1946 50.5739C37.7666 50.8504 38.2192 51.2386 38.5526 51.7386C38.8859 52.2386 39.0696 52.8258 39.1037 53.5H36.8196C36.7552 53.0644 36.5848 52.714 36.3082 52.4489C36.0355 52.1799 35.6776 52.0455 35.2344 52.0455C34.8594 52.0455 34.5317 52.1477 34.2514 52.3523C33.9749 52.553 33.759 52.8466 33.6037 53.233C33.4484 53.6193 33.3707 54.0871 33.3707 54.6364C33.3707 55.1932 33.4465 55.6667 33.598 56.0568C33.7533 56.447 33.9711 56.7443 34.2514 56.9489C34.5317 57.1534 34.8594 57.2557 35.2344 57.2557C35.5109 57.2557 35.759 57.1989 35.9787 57.0852C36.2022 56.9716 36.3859 56.8068 36.5298 56.5909C36.6776 56.3712 36.7741 56.108 36.8196 55.8011H39.1037C39.0658 56.4678 38.884 57.0549 38.5582 57.5625C38.2363 58.0663 37.7912 58.4602 37.223 58.7443C36.6548 59.0284 35.9825 59.1705 35.206 59.1705ZM40.6534 59V50.2727H43.0739V59H40.6534ZM41.8693 49.1477C41.5095 49.1477 41.2008 49.0284 40.9432 48.7898C40.6894 48.5473 40.5625 48.2576 40.5625 47.9205C40.5625 47.5871 40.6894 47.3011 40.9432 47.0625C41.2008 46.8201 41.5095 46.6989 41.8693 46.6989C42.2292 46.6989 42.536 46.8201 42.7898 47.0625C43.0473 47.3011 43.1761 47.5871 43.1761 47.9205C43.1761 48.2576 43.0473 48.5473 42.7898 48.7898C42.536 49.0284 42.2292 49.1477 41.8693 49.1477ZM47.5014 59.1648C46.9446 59.1648 46.4484 59.0682 46.0128 58.875C45.5772 58.678 45.2325 58.3883 44.9787 58.0057C44.7287 57.6193 44.6037 57.1383 44.6037 56.5625C44.6037 56.0777 44.6927 55.6705 44.8707 55.3409C45.0488 55.0114 45.2912 54.7462 45.598 54.5455C45.9048 54.3447 46.2533 54.1932 46.6435 54.0909C47.0374 53.9886 47.4503 53.9167 47.8821 53.875C48.3897 53.822 48.7988 53.7727 49.1094 53.7273C49.42 53.678 49.6454 53.6061 49.7855 53.5114C49.9257 53.4167 49.9957 53.2765 49.9957 53.0909V53.0568C49.9957 52.697 49.8821 52.4186 49.6548 52.2216C49.4313 52.0246 49.1132 51.9261 48.7003 51.9261C48.2647 51.9261 47.9181 52.0227 47.6605 52.2159C47.4029 52.4053 47.2325 52.6439 47.1491 52.9318L44.9105 52.75C45.0241 52.2197 45.2476 51.7614 45.581 51.375C45.9143 50.9848 46.3442 50.6856 46.8707 50.4773C47.401 50.2652 48.0147 50.1591 48.7116 50.1591C49.1965 50.1591 49.6605 50.2159 50.1037 50.3295C50.5507 50.4432 50.9465 50.6193 51.2912 50.858C51.6397 51.0966 51.9143 51.4034 52.1151 51.7784C52.3158 52.1496 52.4162 52.5947 52.4162 53.1136V59H50.1207V57.7898H50.0526C49.9124 58.0625 49.7249 58.303 49.4901 58.5114C49.2552 58.7159 48.973 58.8769 48.6435 58.9943C48.3139 59.108 47.9332 59.1648 47.5014 59.1648ZM48.1946 57.4943C48.5507 57.4943 48.8651 57.4242 49.1378 57.2841C49.4105 57.1402 49.6245 56.947 49.7798 56.7045C49.9351 56.4621 50.0128 56.1875 50.0128 55.8807V54.9545C49.937 55.0038 49.8329 55.0492 49.7003 55.0909C49.5715 55.1288 49.4257 55.1648 49.2628 55.1989C49.0999 55.2292 48.937 55.2576 48.7741 55.2841C48.6113 55.3068 48.4635 55.3277 48.331 55.3466C48.0469 55.3883 47.7988 55.4545 47.5866 55.5455C47.3745 55.6364 47.2098 55.7595 47.0923 55.9148C46.9749 56.0663 46.9162 56.2557 46.9162 56.483C46.9162 56.8125 47.0355 57.0644 47.2741 57.2386C47.5166 57.4091 47.8234 57.4943 48.1946 57.4943ZM56.7145 47.3636V59H54.294V47.3636H56.7145ZM58.6989 47.3636H61.733L64.9375 55.1818H65.0739L68.2784 47.3636H71.3125V59H68.9261V51.4261H68.8295L65.8182 58.9432H64.1932L61.1818 51.3977H61.0852V59H58.6989V47.3636ZM77.2713 59.1705C76.3736 59.1705 75.6009 58.9886 74.9531 58.625C74.3092 58.2576 73.813 57.7386 73.4645 57.0682C73.116 56.3939 72.9418 55.5966 72.9418 54.6761C72.9418 53.7784 73.116 52.9905 73.4645 52.3125C73.813 51.6345 74.3035 51.1061 74.9361 50.7273C75.5724 50.3485 76.3187 50.1591 77.1747 50.1591C77.7505 50.1591 78.2865 50.2519 78.7827 50.4375C79.2827 50.6193 79.7183 50.8939 80.0895 51.2614C80.4645 51.6288 80.7562 52.0909 80.9645 52.6477C81.1728 53.2008 81.277 53.8485 81.277 54.5909V55.2557H73.9077V53.7557H78.9986C78.9986 53.4072 78.9228 53.0985 78.7713 52.8295C78.6198 52.5606 78.4096 52.3504 78.1406 52.1989C77.8755 52.0436 77.5668 51.9659 77.2145 51.9659C76.8471 51.9659 76.5213 52.0511 76.2372 52.2216C75.9569 52.3883 75.7372 52.6136 75.5781 52.8977C75.419 53.178 75.3376 53.4905 75.3338 53.8352V55.2614C75.3338 55.6932 75.4134 56.0663 75.5724 56.3807C75.7353 56.6951 75.9645 56.9375 76.2599 57.108C76.5554 57.2784 76.9058 57.3636 77.3111 57.3636C77.58 57.3636 77.8262 57.3258 78.0497 57.25C78.2732 57.1742 78.4645 57.0606 78.6236 56.9091C78.7827 56.7576 78.9039 56.572 78.9872 56.3523L81.2259 56.5C81.1122 57.0379 80.8793 57.5076 80.527 57.9091C80.1785 58.3068 79.7277 58.6174 79.1747 58.8409C78.6255 59.0606 77.991 59.1705 77.2713 59.1705Z"/>
</mask>
<path d="M17.3239 50.7102C17.2784 50.2519 17.0833 49.8958 16.7386 49.642C16.3939 49.3883 15.9261 49.2614 15.3352 49.2614C14.9337 49.2614 14.5947 49.3182 14.3182 49.4318C14.0417 49.5417 13.8295 49.6951 13.6818 49.892C13.5379 50.089 13.4659 50.3125 13.4659 50.5625C13.4583 50.7708 13.5019 50.9527 13.5966 51.108C13.6951 51.2633 13.8295 51.3977 14 51.5114C14.1705 51.6212 14.3674 51.7178 14.5909 51.8011C14.8144 51.8807 15.053 51.9489 15.3068 52.0057L16.3523 52.2557C16.8598 52.3693 17.3258 52.5208 17.75 52.7102C18.1742 52.8996 18.5417 53.1326 18.8523 53.4091C19.1629 53.6856 19.4034 54.0114 19.5739 54.3864C19.7481 54.7614 19.8371 55.1913 19.8409 55.6761C19.8371 56.3883 19.6553 57.0057 19.2955 57.5284C18.9394 58.0473 18.4242 58.4508 17.75 58.7386C17.0795 59.0227 16.2708 59.1648 15.3239 59.1648C14.3845 59.1648 13.5663 59.0208 12.8693 58.733C12.1761 58.4451 11.6345 58.0189 11.2443 57.4545C10.858 56.8864 10.6553 56.1837 10.6364 55.3466H13.017C13.0436 55.7367 13.1553 56.0625 13.3523 56.3239C13.553 56.5814 13.8201 56.7765 14.1534 56.9091C14.4905 57.0379 14.8712 57.1023 15.2955 57.1023C15.7121 57.1023 16.0739 57.0417 16.3807 56.9205C16.6913 56.7992 16.9318 56.6307 17.1023 56.4148C17.2727 56.1989 17.358 55.9508 17.358 55.6705C17.358 55.4091 17.2803 55.1894 17.125 55.0114C16.9735 54.8333 16.75 54.6818 16.4545 54.5568C16.1629 54.4318 15.8049 54.3182 15.3807 54.2159L14.1136 53.8977C13.1326 53.6591 12.358 53.286 11.7898 52.7784C11.2216 52.2708 10.9394 51.5871 10.9432 50.7273C10.9394 50.0227 11.1269 49.4072 11.5057 48.8807C11.8883 48.3542 12.4129 47.9432 13.0795 47.6477C13.7462 47.3523 14.5038 47.2045 15.3523 47.2045C16.2159 47.2045 16.9697 47.3523 17.6136 47.6477C18.2614 47.9432 18.7652 48.3542 19.125 48.8807C19.4848 49.4072 19.6705 50.017 19.6818 50.7102H17.3239ZM25.3935 59.1705C24.5109 59.1705 23.7476 58.983 23.1037 58.608C22.4635 58.2292 21.9692 57.7027 21.6207 57.0284C21.2723 56.3504 21.098 55.5644 21.098 54.6705C21.098 53.7689 21.2723 52.9811 21.6207 52.3068C21.9692 51.6288 22.4635 51.1023 23.1037 50.7273C23.7476 50.3485 24.5109 50.1591 25.3935 50.1591C26.276 50.1591 27.0374 50.3485 27.6776 50.7273C28.3215 51.1023 28.8177 51.6288 29.1662 52.3068C29.5147 52.9811 29.6889 53.7689 29.6889 54.6705C29.6889 55.5644 29.5147 56.3504 29.1662 57.0284C28.8177 57.7027 28.3215 58.2292 27.6776 58.608C27.0374 58.983 26.276 59.1705 25.3935 59.1705ZM25.4048 57.2955C25.8063 57.2955 26.1416 57.1818 26.4105 56.9545C26.6795 56.7235 26.8821 56.4091 27.0185 56.0114C27.1586 55.6136 27.2287 55.161 27.2287 54.6534C27.2287 54.1458 27.1586 53.6932 27.0185 53.2955C26.8821 52.8977 26.6795 52.5833 26.4105 52.3523C26.1416 52.1212 25.8063 52.0057 25.4048 52.0057C24.9995 52.0057 24.6586 52.1212 24.3821 52.3523C24.1094 52.5833 23.9029 52.8977 23.7628 53.2955C23.6264 53.6932 23.5582 54.1458 23.5582 54.6534C23.5582 55.161 23.6264 55.6136 23.7628 56.0114C23.9029 56.4091 24.1094 56.7235 24.3821 56.9545C24.6586 57.1818 24.9995 57.2955 25.4048 57.2955ZM35.206 59.1705C34.312 59.1705 33.5431 58.9811 32.8991 58.6023C32.259 58.2197 31.7666 57.6894 31.4219 57.0114C31.081 56.3333 30.9105 55.553 30.9105 54.6705C30.9105 53.7765 31.0829 52.9924 31.4276 52.3182C31.776 51.6402 32.2704 51.1117 32.9105 50.733C33.5507 50.3504 34.312 50.1591 35.1946 50.1591C35.956 50.1591 36.6226 50.2973 37.1946 50.5739C37.7666 50.8504 38.2192 51.2386 38.5526 51.7386C38.8859 52.2386 39.0696 52.8258 39.1037 53.5H36.8196C36.7552 53.0644 36.5848 52.714 36.3082 52.4489C36.0355 52.1799 35.6776 52.0455 35.2344 52.0455C34.8594 52.0455 34.5317 52.1477 34.2514 52.3523C33.9749 52.553 33.759 52.8466 33.6037 53.233C33.4484 53.6193 33.3707 54.0871 33.3707 54.6364C33.3707 55.1932 33.4465 55.6667 33.598 56.0568C33.7533 56.447 33.9711 56.7443 34.2514 56.9489C34.5317 57.1534 34.8594 57.2557 35.2344 57.2557C35.5109 57.2557 35.759 57.1989 35.9787 57.0852C36.2022 56.9716 36.3859 56.8068 36.5298 56.5909C36.6776 56.3712 36.7741 56.108 36.8196 55.8011H39.1037C39.0658 56.4678 38.884 57.0549 38.5582 57.5625C38.2363 58.0663 37.7912 58.4602 37.223 58.7443C36.6548 59.0284 35.9825 59.1705 35.206 59.1705ZM40.6534 59V50.2727H43.0739V59H40.6534ZM41.8693 49.1477C41.5095 49.1477 41.2008 49.0284 40.9432 48.7898C40.6894 48.5473 40.5625 48.2576 40.5625 47.9205C40.5625 47.5871 40.6894 47.3011 40.9432 47.0625C41.2008 46.8201 41.5095 46.6989 41.8693 46.6989C42.2292 46.6989 42.536 46.8201 42.7898 47.0625C43.0473 47.3011 43.1761 47.5871 43.1761 47.9205C43.1761 48.2576 43.0473 48.5473 42.7898 48.7898C42.536 49.0284 42.2292 49.1477 41.8693 49.1477ZM47.5014 59.1648C46.9446 59.1648 46.4484 59.0682 46.0128 58.875C45.5772 58.678 45.2325 58.3883 44.9787 58.0057C44.7287 57.6193 44.6037 57.1383 44.6037 56.5625C44.6037 56.0777 44.6927 55.6705 44.8707 55.3409C45.0488 55.0114 45.2912 54.7462 45.598 54.5455C45.9048 54.3447 46.2533 54.1932 46.6435 54.0909C47.0374 53.9886 47.4503 53.9167 47.8821 53.875C48.3897 53.822 48.7988 53.7727 49.1094 53.7273C49.42 53.678 49.6454 53.6061 49.7855 53.5114C49.9257 53.4167 49.9957 53.2765 49.9957 53.0909V53.0568C49.9957 52.697 49.8821 52.4186 49.6548 52.2216C49.4313 52.0246 49.1132 51.9261 48.7003 51.9261C48.2647 51.9261 47.9181 52.0227 47.6605 52.2159C47.4029 52.4053 47.2325 52.6439 47.1491 52.9318L44.9105 52.75C45.0241 52.2197 45.2476 51.7614 45.581 51.375C45.9143 50.9848 46.3442 50.6856 46.8707 50.4773C47.401 50.2652 48.0147 50.1591 48.7116 50.1591C49.1965 50.1591 49.6605 50.2159 50.1037 50.3295C50.5507 50.4432 50.9465 50.6193 51.2912 50.858C51.6397 51.0966 51.9143 51.4034 52.1151 51.7784C52.3158 52.1496 52.4162 52.5947 52.4162 53.1136V59H50.1207V57.7898H50.0526C49.9124 58.0625 49.7249 58.303 49.4901 58.5114C49.2552 58.7159 48.973 58.8769 48.6435 58.9943C48.3139 59.108 47.9332 59.1648 47.5014 59.1648ZM48.1946 57.4943C48.5507 57.4943 48.8651 57.4242 49.1378 57.2841C49.4105 57.1402 49.6245 56.947 49.7798 56.7045C49.9351 56.4621 50.0128 56.1875 50.0128 55.8807V54.9545C49.937 55.0038 49.8329 55.0492 49.7003 55.0909C49.5715 55.1288 49.4257 55.1648 49.2628 55.1989C49.0999 55.2292 48.937 55.2576 48.7741 55.2841C48.6113 55.3068 48.4635 55.3277 48.331 55.3466C48.0469 55.3883 47.7988 55.4545 47.5866 55.5455C47.3745 55.6364 47.2098 55.7595 47.0923 55.9148C46.9749 56.0663 46.9162 56.2557 46.9162 56.483C46.9162 56.8125 47.0355 57.0644 47.2741 57.2386C47.5166 57.4091 47.8234 57.4943 48.1946 57.4943ZM56.7145 47.3636V59H54.294V47.3636H56.7145ZM58.6989 47.3636H61.733L64.9375 55.1818H65.0739L68.2784 47.3636H71.3125V59H68.9261V51.4261H68.8295L65.8182 58.9432H64.1932L61.1818 51.3977H61.0852V59H58.6989V47.3636ZM77.2713 59.1705C76.3736 59.1705 75.6009 58.9886 74.9531 58.625C74.3092 58.2576 73.813 57.7386 73.4645 57.0682C73.116 56.3939 72.9418 55.5966 72.9418 54.6761C72.9418 53.7784 73.116 52.9905 73.4645 52.3125C73.813 51.6345 74.3035 51.1061 74.9361 50.7273C75.5724 50.3485 76.3187 50.1591 77.1747 50.1591C77.7505 50.1591 78.2865 50.2519 78.7827 50.4375C79.2827 50.6193 79.7183 50.8939 80.0895 51.2614C80.4645 51.6288 80.7562 52.0909 80.9645 52.6477C81.1728 53.2008 81.277 53.8485 81.277 54.5909V55.2557H73.9077V53.7557H78.9986C78.9986 53.4072 78.9228 53.0985 78.7713 52.8295C78.6198 52.5606 78.4096 52.3504 78.1406 52.1989C77.8755 52.0436 77.5668 51.9659 77.2145 51.9659C76.8471 51.9659 76.5213 52.0511 76.2372 52.2216C75.9569 52.3883 75.7372 52.6136 75.5781 52.8977C75.419 53.178 75.3376 53.4905 75.3338 53.8352V55.2614C75.3338 55.6932 75.4134 56.0663 75.5724 56.3807C75.7353 56.6951 75.9645 56.9375 76.2599 57.108C76.5554 57.2784 76.9058 57.3636 77.3111 57.3636C77.58 57.3636 77.8262 57.3258 78.0497 57.25C78.2732 57.1742 78.4645 57.0606 78.6236 56.9091C78.7827 56.7576 78.9039 56.572 78.9872 56.3523L81.2259 56.5C81.1122 57.0379 80.8793 57.5076 80.527 57.9091C80.1785 58.3068 79.7277 58.6174 79.1747 58.8409C78.6255 59.0606 77.991 59.1705 77.2713 59.1705Z" fill="url(#paint0_linear_0_1)"/>
<path d="M17.3239 50.7102L16.3287 50.8089L16.4181 51.7102H17.3239V50.7102ZM14.3182 49.4318L14.6874 50.3612L14.6983 50.3568L14.3182 49.4318ZM13.6818 49.892L12.8818 49.292L12.8744 49.302L13.6818 49.892ZM13.4659 50.5625L14.4652 50.5988L14.4659 50.5807V50.5625H13.4659ZM13.5966 51.108L12.7428 51.6286L12.7474 51.6361L12.7521 51.6435L13.5966 51.108ZM14 51.5114L13.4453 52.3434L13.4518 52.3477L13.4583 52.3519L14 51.5114ZM14.5909 51.8011L14.2415 52.7381L14.2485 52.7407L14.2556 52.7432L14.5909 51.8011ZM15.3068 52.0057L15.5394 51.0331L15.5324 51.0314L15.5253 51.0298L15.3068 52.0057ZM16.3523 52.2557L16.1197 53.2283L16.1267 53.2299L16.1338 53.2315L16.3523 52.2557ZM17.75 52.7102L17.3423 53.6234L17.3423 53.6234L17.75 52.7102ZM18.8523 53.4091L19.5172 52.6622L19.5172 52.6622L18.8523 53.4091ZM19.5739 54.3864L18.6635 54.8002L18.667 54.8077L19.5739 54.3864ZM19.8409 55.6761L20.841 55.6815L20.8409 55.6683L19.8409 55.6761ZM19.2955 57.5284L18.4718 56.9614L18.4709 56.9626L19.2955 57.5284ZM17.75 58.7386L18.1402 59.6594L18.1427 59.6583L17.75 58.7386ZM12.8693 58.733L12.4858 59.6565L12.4876 59.6572L12.8693 58.733ZM11.2443 57.4545L10.4174 58.0169L10.4217 58.0232L11.2443 57.4545ZM10.6364 55.3466V54.3466H9.61348L9.63662 55.3692L10.6364 55.3466ZM13.017 55.3466L14.0147 55.2788L13.9514 54.3466H13.017V55.3466ZM13.3523 56.3239L12.5537 56.9257L12.5586 56.9322L12.5635 56.9386L13.3523 56.3239ZM14.1534 56.9091L13.7838 57.8384L13.7965 57.8432L14.1534 56.9091ZM16.3807 56.9205L16.0171 55.9889L16.0133 55.9904L16.3807 56.9205ZM17.1023 56.4148L17.8872 57.0344L17.8872 57.0344L17.1023 56.4148ZM17.125 55.0114L16.3634 55.6595L16.3714 55.6687L17.125 55.0114ZM16.4545 54.5568L16.0606 55.476L16.0649 55.4778L16.4545 54.5568ZM15.3807 54.2159L15.1371 55.1858L15.1463 55.1881L15.3807 54.2159ZM14.1136 53.8977L14.3572 52.9278L14.35 52.9261L14.1136 53.8977ZM11.7898 52.7784L11.1236 53.5242L11.1236 53.5242L11.7898 52.7784ZM10.9432 50.7273L11.9432 50.7317L11.9432 50.7219L10.9432 50.7273ZM11.5057 48.8807L10.6967 48.2928L10.6939 48.2967L11.5057 48.8807ZM17.6136 47.6477L17.1966 48.5566L17.1986 48.5575L17.6136 47.6477ZM19.125 48.8807L18.2994 49.4449L18.2994 49.4449L19.125 48.8807ZM19.6818 50.7102V51.7102H20.6983L20.6817 50.6938L19.6818 50.7102ZM18.319 50.6115C18.248 49.8954 17.9231 49.2723 17.3315 48.8368L16.1457 50.4473C16.2436 50.5193 16.3089 50.6084 16.3287 50.8089L18.319 50.6115ZM17.3315 48.8368C16.7605 48.4164 16.06 48.2614 15.3352 48.2614V50.2614C15.7922 50.2614 16.0274 50.3602 16.1457 50.4473L17.3315 48.8368ZM15.3352 48.2614C14.8455 48.2614 14.3689 48.3298 13.9381 48.5069L14.6983 50.3568C14.8205 50.3065 15.0219 50.2614 15.3352 50.2614V48.2614ZM13.949 48.5025C13.5371 48.6661 13.1611 48.9196 12.8818 49.292L14.4818 50.492C14.498 50.4705 14.5462 50.4172 14.6874 50.3612L13.949 48.5025ZM12.8744 49.302C12.602 49.6748 12.4659 50.106 12.4659 50.5625H14.4659C14.4659 50.519 14.4737 50.5033 14.4892 50.4821L12.8744 49.302ZM12.4666 50.5262C12.4529 50.901 12.5317 51.2824 12.7428 51.6286L14.4504 50.5873C14.4543 50.5937 14.4576 50.6004 14.4604 50.6071C14.4631 50.6137 14.4646 50.6189 14.4654 50.6221C14.467 50.6288 14.4644 50.6227 14.4652 50.5988L12.4666 50.5262ZM12.7521 51.6435C12.9335 51.9296 13.1719 52.1611 13.4453 52.3434L14.5547 50.6793C14.4872 50.6343 14.4566 50.5969 14.4411 50.5724L12.7521 51.6435ZM13.4583 52.3519C13.6987 52.5068 13.9621 52.6339 14.2415 52.7381L14.9403 50.8642C14.7727 50.8017 14.6422 50.7356 14.5417 50.6708L13.4583 52.3519ZM14.2556 52.7432C14.5207 52.8376 14.7987 52.9167 15.0883 52.9815L15.5253 51.0298C15.3074 50.981 15.108 50.9237 14.9262 50.859L14.2556 52.7432ZM15.0742 52.9783L16.1197 53.2283L16.5848 51.2831L15.5394 51.0331L15.0742 52.9783ZM16.1338 53.2315C16.584 53.3323 16.9856 53.4641 17.3423 53.6234L18.1577 51.7971C17.6659 51.5775 17.1357 51.4063 16.5707 51.2798L16.1338 53.2315ZM17.3423 53.6234C17.6837 53.7757 17.9619 53.9553 18.1873 54.156L19.5172 52.6622C19.1215 52.3099 18.6648 52.0235 18.1577 51.7971L17.3423 53.6234ZM18.1873 54.156C18.3948 54.3407 18.5513 54.5533 18.6635 54.8002L20.4842 53.9726C20.2555 53.4694 19.9309 53.0305 19.5172 52.6622L18.1873 54.156ZM18.667 54.8077C18.7715 55.0327 18.8381 55.3176 18.8409 55.6839L20.8409 55.6683C20.8362 55.065 20.7247 54.4901 20.4807 53.965L18.667 54.8077ZM18.8409 55.6708C18.8381 56.2077 18.7042 56.6237 18.4718 56.9614L20.1191 58.0954C20.6064 57.3876 20.8362 56.5688 20.8409 55.6815L18.8409 55.6708ZM18.4709 56.9626C18.239 57.3006 17.8863 57.5931 17.3573 57.819L18.1427 59.6583C18.9622 59.3084 19.6398 58.7941 20.12 58.0942L18.4709 56.9626ZM17.3599 57.8179C16.8439 58.0365 16.1752 58.1648 15.3239 58.1648V60.1648C16.3664 60.1648 17.3152 60.0089 18.1401 59.6594L17.3599 57.8179ZM15.3239 58.1648C14.4843 58.1648 13.8012 58.0359 13.2511 57.8087L12.4876 59.6572C13.3314 60.0057 14.2846 60.1648 15.3239 60.1648V58.1648ZM13.2529 57.8094C12.7197 57.588 12.3376 57.2775 12.0669 56.8859L10.4217 58.0232C10.9313 58.7603 11.6325 59.3021 12.4858 59.6565L13.2529 57.8094ZM12.0712 56.8922C11.815 56.5153 11.6516 56.0107 11.6361 55.324L9.63662 55.3692C9.65896 56.3567 9.90096 57.2574 10.4174 58.0169L12.0712 56.8922ZM10.6364 56.3466H13.017V54.3466H10.6364V56.3466ZM12.0193 55.4144C12.0564 55.9599 12.2188 56.4814 12.5537 56.9257L14.1509 55.722C14.0918 55.6436 14.0307 55.5136 14.0147 55.2788L12.0193 55.4144ZM12.5635 56.9386C12.8842 57.35 13.3021 57.6467 13.7838 57.8383L14.523 55.9799C14.3381 55.9064 14.2219 55.8129 14.141 55.7091L12.5635 56.9386ZM13.7965 57.8432C14.2657 58.0225 14.7702 58.1023 15.2955 58.1023V56.1023C14.9722 56.1023 14.7154 56.0533 14.5103 55.9749L13.7965 57.8432ZM15.2955 58.1023C15.8061 58.1023 16.298 58.0283 16.7481 57.8505L16.0133 55.9904C15.8497 56.055 15.6181 56.1023 15.2955 56.1023V58.1023ZM16.7442 57.852C17.1854 57.6799 17.5853 57.4168 17.8872 57.0344L16.3174 55.7951C16.2784 55.8446 16.1972 55.9186 16.0171 55.9889L16.7442 57.852ZM17.8872 57.0344C18.1998 56.6384 18.358 56.171 18.358 55.6705H16.358C16.358 55.7305 16.3457 55.7593 16.3174 55.7951L17.8872 57.0344ZM18.358 55.6705C18.358 55.195 18.21 54.734 17.8786 54.354L16.3714 55.6687C16.3702 55.6673 16.3673 55.6637 16.364 55.6581C16.3607 55.6525 16.3584 55.6471 16.3569 55.6429C16.3554 55.6388 16.3556 55.638 16.3562 55.6416C16.3568 55.6454 16.358 55.6547 16.358 55.6705H18.358ZM17.8865 54.3632C17.6036 54.0308 17.2326 53.8002 16.8442 53.6359L16.0649 55.4778C16.2674 55.5635 16.3434 55.6359 16.3635 55.6595L17.8865 54.3632ZM16.8485 53.6377C16.4901 53.4841 16.0752 53.3547 15.615 53.2438L15.1463 55.1881C15.5347 55.2817 15.8357 55.3795 16.0606 55.476L16.8485 53.6377ZM15.6242 53.246L14.3572 52.9278L13.8701 54.8676L15.1371 55.1858L15.6242 53.246ZM14.35 52.9261C13.4786 52.7141 12.8683 52.4009 12.456 52.0326L11.1236 53.5242C11.8476 54.171 12.7865 54.6041 13.8773 54.8694L14.35 52.9261ZM12.456 52.0326C12.1301 51.7415 11.9405 51.3462 11.9432 50.7317L9.94319 50.7229C9.93832 51.8281 10.3131 52.8002 11.1236 53.5242L12.456 52.0326ZM11.9432 50.7219C11.9404 50.2095 12.0729 49.8046 12.3174 49.4647L10.6939 48.2967C10.1809 49.0098 9.93838 49.8359 9.9432 50.7326L11.9432 50.7219ZM12.3147 49.4685C12.5817 49.101 12.9592 48.7949 13.4847 48.562L12.6744 46.7335C11.8665 47.0915 11.1948 47.6073 10.6967 48.2929L12.3147 49.4685ZM13.4847 48.562C14.0046 48.3316 14.6207 48.2045 15.3523 48.2045V46.2045C14.3869 46.2045 13.4878 46.373 12.6744 46.7335L13.4847 48.562ZM15.3523 48.2045C16.1028 48.2045 16.7089 48.3329 17.1966 48.5566L18.0307 46.7388C17.2305 46.3717 16.329 46.2045 15.3523 46.2045V48.2045ZM17.1986 48.5575C17.7004 48.7864 18.054 49.0859 18.2994 49.4449L19.9506 48.3164C19.4763 47.6224 18.8224 47.1 18.0286 46.7379L17.1986 48.5575ZM18.2994 49.4449C18.5392 49.7957 18.6735 50.2114 18.682 50.7266L20.6817 50.6938C20.6674 49.8227 20.4305 49.0187 19.9506 48.3164L18.2994 49.4449ZM19.6818 49.7102H17.3239V51.7102H19.6818V49.7102ZM23.1037 58.608L22.5944 59.4686L22.6005 59.4721L23.1037 58.608ZM21.6207 57.0284L20.7313 57.4855L20.7324 57.4876L21.6207 57.0284ZM21.6207 52.3068L22.5091 52.766L22.5101 52.7639L21.6207 52.3068ZM23.1037 50.7273L23.6092 51.5901L23.6107 51.5892L23.1037 50.7273ZM27.6776 50.7273L27.1683 51.5879L27.1743 51.5914L27.6776 50.7273ZM29.1662 52.3068L28.2768 52.7639L28.2778 52.766L29.1662 52.3068ZM29.1662 57.0284L30.0546 57.4876L30.0556 57.4855L29.1662 57.0284ZM27.6776 58.608L28.183 59.4708L28.1846 59.4699L27.6776 58.608ZM26.4105 56.9545L27.056 57.7184L27.0622 57.713L26.4105 56.9545ZM27.0185 56.0114L26.0753 55.679L26.0725 55.687L27.0185 56.0114ZM27.0185 53.2955L26.0725 53.6198L26.0753 53.6278L27.0185 53.2955ZM24.3821 52.3523L23.7409 51.5849L23.7357 51.5893L24.3821 52.3523ZM23.7628 53.2955L22.8196 52.9631L22.8168 52.9711L23.7628 53.2955ZM23.7628 56.0114L22.8168 56.3357L22.8196 56.3437L23.7628 56.0114ZM24.3821 56.9545L23.7357 57.7175L23.7414 57.7224L23.7471 57.7271L24.3821 56.9545ZM25.3935 58.1705C24.6549 58.1705 24.072 58.0147 23.6069 57.7438L22.6005 59.4721C23.4232 59.9512 24.3669 60.1705 25.3935 60.1705V58.1705ZM23.6129 57.7473C23.1378 57.4662 22.7732 57.0803 22.5091 56.5693L20.7324 57.4876C21.1652 58.325 21.7893 58.9922 22.5944 59.4686L23.6129 57.7473ZM22.5101 56.5713C22.2459 56.0572 22.098 55.4328 22.098 54.6705H20.098C20.098 55.696 20.2986 56.6436 20.7313 57.4855L22.5101 56.5713ZM22.098 54.6705C22.098 53.8988 22.2466 53.2739 22.5091 52.766L20.7324 51.8477C20.298 52.6882 20.098 53.639 20.098 54.6705H22.098ZM22.5101 52.7639C22.7743 52.25 23.1376 51.8663 23.6092 51.5901L22.5982 49.8644C21.7895 50.3382 21.1641 51.0076 20.7313 51.8497L22.5101 52.7639ZM23.6107 51.5892C24.0751 51.316 24.6566 51.1591 25.3935 51.1591V49.1591C24.3652 49.1591 23.4201 49.381 22.5967 49.8653L23.6107 51.5892ZM25.3935 51.1591C26.1305 51.1591 26.7089 51.3161 27.1683 51.5879L28.1868 49.8666C27.3659 49.3809 26.4216 49.1591 25.3935 49.1591V51.1591ZM27.1743 51.5914C27.6494 51.8681 28.0134 52.2515 28.2768 52.7639L30.0556 51.8497C29.622 51.0061 28.9936 50.3365 28.1808 49.8631L27.1743 51.5914ZM28.2778 52.766C28.5404 53.2739 28.6889 53.8988 28.6889 54.6705H30.6889C30.6889 53.639 30.489 52.6882 30.0546 51.8477L28.2778 52.766ZM28.6889 54.6705C28.6889 55.4328 28.541 56.0572 28.2768 56.5713L30.0556 57.4855C30.4883 56.6436 30.6889 55.696 30.6889 54.6705H28.6889ZM28.2778 56.5693C28.0145 57.0788 27.6492 57.4644 27.1705 57.746L28.1846 59.4699C28.9938 58.9939 29.6209 58.3265 30.0546 57.4876L28.2778 56.5693ZM27.1721 57.7451C26.712 58.0146 26.1322 58.1705 25.3935 58.1705V60.1705C26.4199 60.1705 27.3628 59.9513 28.183 59.4708L27.1721 57.7451ZM25.4048 58.2955C26.0075 58.2955 26.5814 58.1194 27.056 57.7183L25.7651 56.1908C25.7018 56.2442 25.6052 56.2955 25.4048 56.2955V58.2955ZM27.0622 57.713C27.4893 57.3461 27.7811 56.8703 27.9644 56.3357L26.0725 55.687C25.9831 55.9479 25.8696 56.1009 25.7588 56.196L27.0622 57.713ZM27.9616 56.3437C28.1462 55.82 28.2287 55.2518 28.2287 54.6534H26.2287C26.2287 55.0701 26.1711 55.4073 26.0753 55.679L27.9616 56.3437ZM28.2287 54.6534C28.2287 54.055 28.1462 53.4868 27.9616 52.9631L26.0753 53.6278C26.1711 53.8995 26.2287 54.2367 26.2287 54.6534H28.2287ZM27.9644 52.9711C27.7811 52.4365 27.4893 51.9607 27.0622 51.5938L25.7588 53.1108C25.8696 53.206 25.9831 53.3589 26.0725 53.6198L27.9644 52.9711ZM27.0622 51.5938C26.5878 51.1862 26.0117 51.0057 25.4048 51.0057V53.0057C25.601 53.0057 25.6953 53.0562 25.7588 53.1108L27.0622 51.5938ZM25.4048 51.0057C24.7962 51.0057 24.2198 51.1848 23.7409 51.5849L25.0233 53.1196C25.0975 53.0577 25.2028 53.0057 25.4048 53.0057V51.0057ZM23.7357 51.5893C23.305 51.9542 23.0081 52.4283 22.8196 52.9631L24.7059 53.6278C24.7978 53.3671 24.9137 53.2125 25.0285 53.1153L23.7357 51.5893ZM22.8168 52.9711C22.6381 53.4923 22.5582 54.0576 22.5582 54.6534H24.5582C24.5582 54.234 24.6147 53.8941 24.7087 53.6198L22.8168 52.9711ZM22.5582 54.6534C22.5582 55.2492 22.6381 55.8145 22.8168 56.3357L24.7087 55.687C24.6147 55.4128 24.5582 55.0728 24.5582 54.6534H22.5582ZM22.8196 56.3437C23.0081 56.8785 23.305 57.3527 23.7357 57.7175L25.0285 56.1916C24.9137 56.0943 24.7978 55.9397 24.7059 55.679L22.8196 56.3437ZM23.7471 57.7271C24.2261 58.1208 24.8004 58.2955 25.4048 58.2955V56.2955C25.1987 56.2955 25.0911 56.2428 25.0171 56.182L23.7471 57.7271ZM32.8991 58.6023L32.3861 59.4607L32.3921 59.4642L32.8991 58.6023ZM31.4219 57.0114L30.5284 57.4606L30.5305 57.4645L31.4219 57.0114ZM31.4276 52.3182L30.5382 51.8611L30.5372 51.863L31.4276 52.3182ZM32.9105 50.733L33.4198 51.5936L33.4235 51.5913L32.9105 50.733ZM37.1946 50.5739L37.6299 49.6736L37.6299 49.6736L37.1946 50.5739ZM38.5526 51.7386L37.7205 52.2933L38.5526 51.7386ZM39.1037 53.5V54.5H40.1555L40.1024 53.4495L39.1037 53.5ZM36.8196 53.5L35.8304 53.6462L35.9566 54.5H36.8196V53.5ZM36.3082 52.4489L35.606 53.161L35.6161 53.1706L36.3082 52.4489ZM34.2514 52.3523L34.8389 53.1615L34.8409 53.1601L34.2514 52.3523ZM33.598 56.0568L32.6658 56.4188L32.6689 56.4267L33.598 56.0568ZM34.2514 56.9489L34.8409 56.1411L34.8409 56.1411L34.2514 56.9489ZM35.9787 57.0852L35.5254 56.1938L35.5193 56.197L35.9787 57.0852ZM36.5298 56.5909L35.7 56.0329L35.6978 56.0362L36.5298 56.5909ZM36.8196 55.8011V54.8011H35.9568L35.8304 55.6546L36.8196 55.8011ZM39.1037 55.8011L40.1021 55.8579L40.1621 54.8011H39.1037V55.8011ZM38.5582 57.5625L37.7167 57.0224L37.7156 57.024L38.5582 57.5625ZM37.223 58.7443L36.7758 57.8499L36.7758 57.8499L37.223 58.7443ZM35.206 58.1705C34.4551 58.1705 33.8687 58.0124 33.4062 57.7403L32.3921 59.4642C33.2175 59.9497 34.1689 60.1705 35.206 60.1705V58.1705ZM33.4121 57.7439C32.9372 57.46 32.5744 57.0717 32.3133 56.5582L30.5305 57.4645C30.9588 58.3071 31.5808 58.9794 32.3861 59.4607L33.4121 57.7439ZM32.3153 56.5622C32.0551 56.0446 31.9105 55.4224 31.9105 54.6705H29.9105C29.9105 55.6836 30.1069 56.6221 30.5284 57.4606L32.3153 56.5622ZM31.9105 54.6705C31.9105 53.9063 32.0572 53.2834 32.3179 52.7734L30.5372 51.863C30.1085 52.7015 29.9105 53.6467 29.9105 54.6705H31.9105ZM32.317 52.7753C32.5815 52.2605 32.946 51.8739 33.4198 51.5936L32.4013 49.8723C31.5947 50.3496 30.9705 51.0198 30.5382 51.8611L32.317 52.7753ZM33.4235 51.5913C33.8822 51.3172 34.4593 51.1591 35.1946 51.1591V49.1591C34.1648 49.1591 33.2191 49.3836 32.3975 49.8746L33.4235 51.5913ZM35.1946 51.1591C35.8348 51.1591 36.3474 51.275 36.7594 51.4742L37.6299 49.6736C36.8979 49.3197 36.0772 49.1591 35.1946 49.1591V51.1591ZM36.7594 51.4742C37.1801 51.6776 37.4919 51.9505 37.7205 52.2933L39.3846 51.1839C38.9465 50.5268 38.353 50.0232 37.6299 49.6736L36.7594 51.4742ZM37.7205 52.2933C37.9419 52.6255 38.0788 53.0335 38.105 53.5505L40.1024 53.4495C40.0604 52.618 39.8298 51.8518 39.3846 51.1839L37.7205 52.2933ZM39.1037 52.5H36.8196V54.5H39.1037V52.5ZM37.8089 53.3538C37.7171 52.733 37.4604 52.1682 37.0004 51.7271L35.6161 53.1706C35.7091 53.2598 35.7933 53.3958 35.8304 53.6462L37.8089 53.3538ZM37.0104 51.7368C36.521 51.2543 35.8958 51.0455 35.2344 51.0455V53.0455C35.4593 53.0455 35.55 53.1056 35.6061 53.1609L37.0104 51.7368ZM35.2344 51.0455C34.6656 51.0455 34.1275 51.2048 33.662 51.5445L34.8409 53.1601C34.936 53.0907 35.0532 53.0455 35.2344 53.0455V51.0455ZM33.6639 51.5431C33.2049 51.8763 32.8859 52.3374 32.6758 52.86L34.5315 53.6059C34.6321 53.3558 34.7449 53.2298 34.8389 53.1615L33.6639 51.5431ZM32.6758 52.86C32.4603 53.3961 32.3707 53.9979 32.3707 54.6364H34.3707C34.3707 54.1763 34.4364 53.8425 34.5315 53.6059L32.6758 52.86ZM32.3707 54.6364C32.3707 55.2784 32.4574 55.882 32.6658 56.4188L34.5302 55.6948C34.4356 55.4513 34.3707 55.1079 34.3707 54.6364H32.3707ZM32.6689 56.4267C32.8792 56.9548 33.2002 57.4197 33.662 57.7567L34.8409 56.1411C34.7421 56.069 34.6275 55.9391 34.5271 55.687L32.6689 56.4267ZM33.662 57.7567C34.1275 58.0964 34.6656 58.2557 35.2344 58.2557V56.2557C35.0532 56.2557 34.936 56.2105 34.8409 56.1411L33.662 57.7567ZM35.2344 58.2557C35.6517 58.2557 36.0604 58.1688 36.4381 57.9734L35.5193 56.197C35.4576 56.2289 35.3701 56.2557 35.2344 56.2557V58.2557ZM36.4319 57.9766C36.814 57.7823 37.1262 57.4992 37.3619 57.1456L35.6978 56.0362C35.6456 56.1144 35.5904 56.1608 35.5254 56.1938L36.4319 57.9766ZM37.3597 57.1489C37.6036 56.7862 37.7452 56.3767 37.8088 55.9477L35.8304 55.6546C35.803 55.8392 35.7515 55.9563 35.7 56.0329L37.3597 57.1489ZM36.8196 56.8011H39.1037V54.8011H36.8196V56.8011ZM38.1053 55.7444C38.0761 56.258 37.9397 56.6748 37.7167 57.0224L39.3998 58.1026C39.8283 57.435 40.0555 56.6776 40.1021 55.8579L38.1053 55.7444ZM37.7156 57.024C37.497 57.366 37.193 57.6413 36.7758 57.8499L37.6702 59.6387C38.3894 59.2791 38.9755 58.7666 39.4009 58.101L37.7156 57.024ZM36.7758 57.8499C36.374 58.0508 35.8612 58.1705 35.206 58.1705V60.1705C36.1038 60.1705 36.9357 60.006 37.6702 59.6387L36.7758 57.8499ZM40.6534 59H39.6534V60H40.6534V59ZM40.6534 50.2727V49.2727H39.6534V50.2727H40.6534ZM43.0739 50.2727H44.0739V49.2727H43.0739V50.2727ZM43.0739 59V60H44.0739V59H43.0739ZM40.9432 48.7898L40.2524 49.5129L40.258 49.5182L40.2636 49.5233L40.9432 48.7898ZM40.9432 47.0625L41.6282 47.791L41.6285 47.7907L40.9432 47.0625ZM42.7898 47.0625L42.099 47.7856L42.1046 47.7909L42.1102 47.7961L42.7898 47.0625ZM42.7898 48.7898L43.4748 49.5183L43.4751 49.518L42.7898 48.7898ZM41.6534 59V50.2727H39.6534V59H41.6534ZM40.6534 51.2727H43.0739V49.2727H40.6534V51.2727ZM42.0739 50.2727V59H44.0739V50.2727H42.0739ZM43.0739 58H40.6534V60H43.0739V58ZM41.8693 48.1477C41.7546 48.1477 41.6905 48.1189 41.6228 48.0562L40.2636 49.5233C40.711 49.9379 41.2644 50.1477 41.8693 50.1477V48.1477ZM41.6339 48.0667C41.5685 48.0042 41.5625 47.9721 41.5625 47.9205H39.5625C39.5625 48.5431 39.8103 49.0905 40.2524 49.5129L41.6339 48.0667ZM41.5625 47.9205C41.5625 47.8842 41.5686 47.8686 41.5717 47.8615C41.5753 47.8535 41.5874 47.8294 41.6282 47.791L40.2582 46.334C39.8136 46.752 39.5625 47.2975 39.5625 47.9205H41.5625ZM41.6285 47.7907C41.6971 47.7262 41.7593 47.6989 41.8693 47.6989V45.6989C41.2596 45.6989 40.7044 45.914 40.2578 46.3343L41.6285 47.7907ZM41.8693 47.6989C41.9791 47.6989 42.0365 47.7258 42.099 47.7856L43.4805 46.3394C43.0355 45.9143 42.4792 45.6989 41.8693 45.6989V47.6989ZM42.1102 47.7961C42.1524 47.8352 42.1645 47.8595 42.1677 47.8666C42.1704 47.8725 42.1761 47.8863 42.1761 47.9205H44.1761C44.1761 47.2924 43.919 46.7454 43.4694 46.3289L42.1102 47.7961ZM42.1761 47.9205C42.1761 47.967 42.1723 47.9977 42.1044 48.0616L43.4751 49.518C43.9224 49.097 44.1761 48.5482 44.1761 47.9205H42.1761ZM42.1047 48.0613C42.0431 48.1192 41.9839 48.1477 41.8693 48.1477V50.1477C42.4744 50.1477 43.0289 49.9376 43.4748 49.5183L42.1047 48.0613ZM46.0128 58.875L45.6008 59.7862L45.6074 59.7891L46.0128 58.875ZM44.9787 58.0057L44.1391 58.549L44.1454 58.5585L44.9787 58.0057ZM44.8707 55.3409L43.9909 54.8656L43.9909 54.8656L44.8707 55.3409ZM45.598 54.5455L45.0505 53.7087L45.0505 53.7087L45.598 54.5455ZM46.6435 54.0909L46.3922 53.123L46.3899 53.1236L46.6435 54.0909ZM47.8821 53.875L47.9782 54.8704L47.986 54.8696L47.8821 53.875ZM49.1094 53.7273L49.2542 54.7168L49.266 54.7149L49.1094 53.7273ZM49.7855 53.5114L49.2257 52.6828L49.2257 52.6828L49.7855 53.5114ZM49.6548 52.2216L48.9936 52.9718L48.9999 52.9773L49.6548 52.2216ZM47.6605 52.2159L48.2529 53.0216L48.2605 53.0159L47.6605 52.2159ZM47.1491 52.9318L47.0682 53.9285L47.8825 53.9947L48.1097 53.2099L47.1491 52.9318ZM44.9105 52.75L43.9327 52.5405L43.694 53.6545L44.8296 53.7467L44.9105 52.75ZM45.581 51.375L46.3381 52.0282L46.3413 52.0246L45.581 51.375ZM46.8707 50.4773L47.2387 51.4071L47.2421 51.4057L46.8707 50.4773ZM50.1037 50.3295L49.8553 51.2982L49.8573 51.2987L50.1037 50.3295ZM51.2912 50.858L50.722 51.6802L50.7262 51.683L51.2912 50.858ZM52.1151 51.7784L51.2334 52.2504L51.2355 52.2541L52.1151 51.7784ZM52.4162 59V60H53.4162V59H52.4162ZM50.1207 59H49.1207V60H50.1207V59ZM50.1207 57.7898H51.1207V56.7898H50.1207V57.7898ZM50.0526 57.7898V56.7898H49.4421L49.1631 57.3327L50.0526 57.7898ZM49.4901 58.5114L50.1469 59.2655L50.1537 59.2594L49.4901 58.5114ZM48.6435 58.9943L48.9695 59.9397L48.9791 59.9363L48.6435 58.9943ZM49.1378 57.2841L49.5949 58.1736L49.6045 58.1685L49.1378 57.2841ZM49.7798 56.7045L48.9378 56.1651L48.9378 56.1651L49.7798 56.7045ZM50.0128 54.9545H51.0128V53.1119L49.4678 54.1161L50.0128 54.9545ZM49.7003 55.0909L49.9825 56.0503L49.9913 56.0477L50.0001 56.0449L49.7003 55.0909ZM49.2628 55.1989L49.4457 56.182L49.4567 56.1799L49.4676 56.1777L49.2628 55.1989ZM48.7741 55.2841L48.9123 56.2745L48.9236 56.2729L48.9348 56.2711L48.7741 55.2841ZM48.331 55.3466L48.1895 54.3566L48.1859 54.3572L48.331 55.3466ZM47.5866 55.5455L47.9806 56.4646L47.9806 56.4646L47.5866 55.5455ZM47.0923 55.9148L47.8828 56.5274L47.89 56.5179L47.0923 55.9148ZM47.2741 57.2386L46.6845 58.0463L46.6917 58.0515L46.699 58.0567L47.2741 57.2386ZM47.5014 58.1648C47.0609 58.1648 46.7064 58.0887 46.4182 57.9609L45.6074 59.7891C46.1904 60.0477 46.8283 60.1648 47.5014 60.1648V58.1648ZM46.4248 57.9638C46.1531 57.841 45.9574 57.6721 45.812 57.4529L44.1454 58.5585C44.5075 59.1044 45.0013 59.5151 45.6008 59.7862L46.4248 57.9638ZM45.8183 57.4624C45.6965 57.2742 45.6037 56.9938 45.6037 56.5625H43.6037C43.6037 57.2827 43.7609 57.9644 44.1391 58.5489L45.8183 57.4624ZM45.6037 56.5625C45.6037 56.1961 45.6712 55.963 45.7506 55.8162L43.9909 54.8656C43.7142 55.3779 43.6037 55.9592 43.6037 56.5625H45.6037ZM45.7506 55.8162C45.8514 55.6296 45.9809 55.49 46.1455 55.3822L45.0505 53.7087C44.6015 54.0025 44.2462 54.3931 43.9909 54.8656L45.7506 55.8162ZM46.1455 55.3822C46.3535 55.2462 46.6009 55.1359 46.897 55.0582L46.3899 53.1236C45.9057 53.2505 45.4562 53.4432 45.0505 53.7087L46.1455 55.3822ZM46.8948 55.0588C47.2345 54.9706 47.5953 54.9073 47.9781 54.8704L47.7861 52.8796C47.3053 52.926 46.8403 53.0067 46.3922 53.123L46.8948 55.0588ZM47.986 54.8696C48.5 54.8159 48.9243 54.765 49.2542 54.7167L48.9646 52.7378C48.6733 52.7804 48.2794 52.828 47.7782 52.8804L47.986 54.8696ZM49.266 54.7149C49.6177 54.6592 50.02 54.5598 50.3454 54.34L49.2257 52.6828C49.2589 52.6603 49.2623 52.6661 49.2072 52.6838C49.1555 52.7003 49.0733 52.7205 48.9528 52.7396L49.266 54.7149ZM50.3454 54.34C50.7908 54.039 50.9957 53.5706 50.9957 53.0909H48.9957C48.9957 53.0569 49.0027 52.9802 49.0488 52.888C49.0967 52.7922 49.1649 52.7238 49.2257 52.6828L50.3454 54.34ZM50.9957 53.0909V53.0568H48.9957V53.0909H50.9957ZM50.9957 53.0568C50.9957 52.4695 50.7994 51.8902 50.3098 51.4659L48.9999 52.9773C48.9992 52.9767 48.9956 52.9733 48.9913 52.9674C48.9871 52.9614 48.985 52.9569 48.9847 52.956C48.9839 52.9541 48.9957 52.9815 48.9957 53.0568H50.9957ZM50.316 51.4714C49.8499 51.0606 49.2627 50.9261 48.7003 50.9261V52.9261C48.9637 52.9261 49.0127 52.9886 48.9936 52.9718L50.316 51.4714ZM48.7003 50.9261C48.1238 50.9261 47.5431 51.054 47.0605 51.4159L48.2605 53.0159C48.2931 52.9915 48.4056 52.9261 48.7003 52.9261V50.9261ZM47.0681 51.4103C46.6457 51.7209 46.3374 52.1397 46.1886 52.6538L48.1097 53.2099C48.1276 53.1482 48.1602 53.0898 48.2529 53.0216L47.0681 51.4103ZM47.2301 51.9351L44.9915 51.7533L44.8296 53.7467L47.0682 53.9285L47.2301 51.9351ZM45.8883 52.9595C45.9691 52.5827 46.1213 52.2796 46.3381 52.0282L44.8238 50.7218C44.374 51.2432 44.0792 51.8567 43.9327 52.5405L45.8883 52.9595ZM46.3413 52.0246C46.558 51.7709 46.8479 51.5618 47.2387 51.4071L46.5028 49.5474C45.8406 49.8094 45.2706 50.1988 44.8207 50.7254L46.3413 52.0246ZM47.2421 51.4057C47.6314 51.25 48.1147 51.1591 48.7116 51.1591V49.1591C47.9147 49.1591 47.1707 49.2803 46.4993 49.5488L47.2421 51.4057ZM48.7116 51.1591C49.1177 51.1591 49.498 51.2066 49.8553 51.2982L50.3521 49.3609C49.823 49.2252 49.2753 49.1591 48.7116 49.1591V51.1591ZM49.8573 51.2987C50.2003 51.3859 50.4846 51.5158 50.722 51.6801L51.8604 50.0358C51.4084 49.7228 50.901 49.5004 50.3501 49.3604L49.8573 51.2987ZM50.7262 51.683C50.9414 51.8304 51.1078 52.0157 51.2334 52.2504L52.9967 51.3064C52.7208 50.7911 52.338 50.3628 51.8562 50.0329L50.7262 51.683ZM51.2355 52.2541C51.341 52.4493 51.4162 52.7231 51.4162 53.1136H53.4162C53.4162 52.4663 53.2906 51.8499 52.9947 51.3027L51.2355 52.2541ZM51.4162 53.1136V59H53.4162V53.1136H51.4162ZM52.4162 58H50.1207V60H52.4162V58ZM51.1207 59V57.7898H49.1207V59H51.1207ZM50.1207 56.7898H50.0526V58.7898H50.1207V56.7898ZM49.1631 57.3327C49.0809 57.4926 48.9709 57.6351 48.8264 57.7633L50.1537 59.2594C50.4789 58.9709 50.7439 58.6324 50.942 58.2468L49.1631 57.3327ZM48.8333 57.7573C48.7037 57.8701 48.534 57.9717 48.3078 58.0523L48.9791 59.9363C49.4121 59.782 49.8067 59.5617 50.1468 59.2654L48.8333 57.7573ZM48.3175 58.0489C48.1144 58.119 47.8477 58.1648 47.5014 58.1648V60.1648C48.0187 60.1648 48.5134 60.0969 48.9695 59.9397L48.3175 58.0489ZM48.1946 58.4943C48.684 58.4943 49.1595 58.3972 49.5949 58.1735L48.6807 56.3947C48.5706 56.4513 48.4174 56.4943 48.1946 56.4943V58.4943ZM49.6045 58.1685C50.0188 57.9498 50.3667 57.6422 50.6219 57.244L48.9378 56.1651C48.8823 56.2517 48.8022 56.3305 48.671 56.3997L49.6045 58.1685ZM50.6219 57.244C50.8872 56.8298 51.0128 56.3656 51.0128 55.8807H49.0128C49.0128 56.0094 48.9831 56.0944 48.9378 56.1651L50.6219 57.244ZM51.0128 55.8807V54.9545H49.0128V55.8807H51.0128ZM49.4678 54.1161C49.486 54.1043 49.4918 54.103 49.4779 54.109C49.4647 54.1148 49.4399 54.1245 49.4005 54.1369L50.0001 56.0449C50.1781 55.989 50.3767 55.9107 50.5578 55.793L49.4678 54.1161ZM49.4181 54.1315C49.32 54.1604 49.2007 54.1902 49.0579 54.2201L49.4676 56.1777C49.6507 56.1393 49.823 56.0972 49.9825 56.0503L49.4181 54.1315ZM49.0799 54.2157C48.9244 54.2447 48.7689 54.2718 48.6135 54.2971L48.9348 56.2711C49.1052 56.2434 49.2754 56.2137 49.4457 56.182L49.0799 54.2157ZM48.636 54.2937C48.4722 54.3165 48.3234 54.3375 48.1895 54.3566L48.4724 56.3365C48.6037 56.3178 48.7503 56.2971 48.9123 56.2745L48.636 54.2937ZM48.1859 54.3572C47.836 54.4085 47.501 54.4942 47.1927 54.6263L47.9806 56.4646C48.0966 56.4149 48.2577 56.368 48.4761 56.336L48.1859 54.3572ZM47.1927 54.6263C46.8506 54.7729 46.5348 54.994 46.2947 55.3117L47.89 56.5179C47.8889 56.5194 47.8912 56.5155 47.9025 56.5071C47.9144 56.4981 47.9384 56.4827 47.9806 56.4646L47.1927 54.6263ZM46.3019 55.3022C46.0246 55.66 45.9162 56.0766 45.9162 56.483H47.9162C47.9162 56.4553 47.9197 56.4525 47.9154 56.4666C47.9132 56.4735 47.9096 56.4832 47.9037 56.4945C47.8978 56.5059 47.8907 56.5171 47.8827 56.5273L46.3019 55.3022ZM45.9162 56.483C45.9162 57.0892 46.1554 57.66 46.6845 58.0463L47.8638 56.431C47.8653 56.432 47.8731 56.4381 47.8832 56.4502C47.8936 56.4625 47.9027 56.4767 47.9094 56.4909C47.9237 56.521 47.9162 56.5264 47.9162 56.483H45.9162ZM46.699 58.0567C47.1481 58.3725 47.6699 58.4943 48.1946 58.4943V56.4943C47.9769 56.4943 47.885 56.4457 47.8493 56.4206L46.699 58.0567ZM56.7145 47.3636H57.7145V46.3636H56.7145V47.3636ZM56.7145 59V60H57.7145V59H56.7145ZM54.294 59H53.294V60H54.294V59ZM54.294 47.3636V46.3636H53.294V47.3636H54.294ZM55.7145 47.3636V59H57.7145V47.3636H55.7145ZM56.7145 58H54.294V60H56.7145V58ZM55.294 59V47.3636H53.294V59H55.294ZM54.294 48.3636H56.7145V46.3636H54.294V48.3636ZM58.6989 47.3636V46.3636H57.6989V47.3636H58.6989ZM61.733 47.3636L62.6582 46.9844L62.4038 46.3636H61.733V47.3636ZM64.9375 55.1818L64.0122 55.5611L64.2666 56.1818H64.9375V55.1818ZM65.0739 55.1818V56.1818H65.7447L65.9992 55.5611L65.0739 55.1818ZM68.2784 47.3636V46.3636H67.6076L67.3531 46.9844L68.2784 47.3636ZM71.3125 47.3636H72.3125V46.3636H71.3125V47.3636ZM71.3125 59V60H72.3125V59H71.3125ZM68.9261 59H67.9261V60H68.9261V59ZM68.9261 51.4261H69.9261V50.4261H68.9261V51.4261ZM68.8295 51.4261V50.4261H68.1529L67.9013 51.0543L68.8295 51.4261ZM65.8182 58.9432V59.9432H66.4948L66.7465 59.3151L65.8182 58.9432ZM64.1932 58.9432L63.2644 59.3138L63.5156 59.9432H64.1932V58.9432ZM61.1818 51.3977L62.1106 51.0271L61.8594 50.3977H61.1818V51.3977ZM61.0852 51.3977V50.3977H60.0852V51.3977H61.0852ZM61.0852 59V60H62.0852V59H61.0852ZM58.6989 59H57.6989V60H58.6989V59ZM58.6989 48.3636H61.733V46.3636H58.6989V48.3636ZM60.8077 47.7429L64.0122 55.5611L65.8628 54.8026L62.6582 46.9844L60.8077 47.7429ZM64.9375 56.1818H65.0739V54.1818H64.9375V56.1818ZM65.9992 55.5611L69.2037 47.7429L67.3531 46.9844L64.1486 54.8026L65.9992 55.5611ZM68.2784 48.3636H71.3125V46.3636H68.2784V48.3636ZM70.3125 47.3636V59H72.3125V47.3636H70.3125ZM71.3125 58H68.9261V60H71.3125V58ZM69.9261 59V51.4261H67.9261V59H69.9261ZM68.9261 50.4261H68.8295V52.4261H68.9261V50.4261ZM67.9013 51.0543L64.8899 58.5713L66.7465 59.3151L69.7578 51.798L67.9013 51.0543ZM65.8182 57.9432H64.1932V59.9432H65.8182V57.9432ZM65.1219 58.5725L62.1106 51.0271L60.2531 51.7684L63.2644 59.3138L65.1219 58.5725ZM61.1818 50.3977H61.0852V52.3977H61.1818V50.3977ZM60.0852 51.3977V59H62.0852V51.3977H60.0852ZM61.0852 58H58.6989V60H61.0852V58ZM59.6989 59V47.3636H57.6989V59H59.6989ZM74.9531 58.625L74.4575 59.4936L74.4636 59.497L74.9531 58.625ZM73.4645 57.0682L72.5761 57.5273L72.5772 57.5294L73.4645 57.0682ZM73.4645 52.3125L72.5751 51.8554L72.5751 51.8554L73.4645 52.3125ZM74.9361 50.7273L74.4246 49.868L74.4223 49.8693L74.9361 50.7273ZM78.7827 50.4375L78.4323 51.3742L78.4409 51.3773L78.7827 50.4375ZM80.0895 51.2614L79.386 51.9721L79.3896 51.9756L80.0895 51.2614ZM80.9645 52.6477L80.0279 52.9982L80.0287 53.0003L80.9645 52.6477ZM81.277 55.2557V56.2557H82.277V55.2557H81.277ZM73.9077 55.2557H72.9077V56.2557H73.9077V55.2557ZM73.9077 53.7557V52.7557H72.9077V53.7557H73.9077ZM78.9986 53.7557V54.7557H79.9986V53.7557H78.9986ZM78.7713 52.8295L77.9001 53.3204L77.9001 53.3204L78.7713 52.8295ZM78.1406 52.1989L77.6352 53.0617L77.6425 53.066L77.6498 53.0701L78.1406 52.1989ZM76.2372 52.2216L76.7483 53.0811L76.7517 53.0791L76.2372 52.2216ZM75.5781 52.8977L76.4478 53.3913L76.4506 53.3863L75.5781 52.8977ZM75.3338 53.8352L74.3338 53.8242V53.8352H75.3338ZM75.5724 56.3807L74.6801 56.8322L74.6845 56.8407L75.5724 56.3807ZM78.0497 57.25L77.7287 56.3029L77.7287 56.3029L78.0497 57.25ZM78.6236 56.9091L77.9339 56.185L77.9339 56.185L78.6236 56.9091ZM78.9872 56.3523L79.0531 55.3544L78.3147 55.3057L78.0522 55.9976L78.9872 56.3523ZM81.2259 56.5L82.2043 56.7067L82.4427 55.5781L81.2917 55.5022L81.2259 56.5ZM80.527 57.9091L79.7753 57.2496L79.7749 57.2501L80.527 57.9091ZM79.1747 58.8409L79.5461 59.7694L79.5494 59.7681L79.1747 58.8409ZM77.2713 58.1705C76.5094 58.1705 75.9126 58.0169 75.4427 57.753L74.4636 59.497C75.2891 59.9604 76.2378 60.1705 77.2713 60.1705V58.1705ZM75.4487 57.7564C74.9752 57.4862 74.6134 57.1103 74.3518 56.607L72.5772 57.5294C73.0126 58.367 73.6432 59.0289 74.4575 59.4936L75.4487 57.7564ZM74.3528 56.609C74.0917 56.1038 73.9418 55.4704 73.9418 54.6761H71.9418C71.9418 55.7227 72.1403 56.684 72.5761 57.5273L74.3528 56.609ZM73.9418 54.6761C73.9418 53.9092 74.09 53.2832 74.3539 52.7696L72.5751 51.8554C72.1421 52.6979 71.9418 53.6476 71.9418 54.6761H73.9418ZM74.3539 52.7696C74.6201 52.2517 74.9831 51.8647 75.4498 51.5852L74.4223 49.8693C73.624 50.3474 73.0059 51.0172 72.5751 51.8554L74.3539 52.7696ZM75.4476 51.5866C75.9064 51.3134 76.4702 51.1591 77.1747 51.1591V49.1591C76.1671 49.1591 75.2385 49.3835 74.4246 49.868L75.4476 51.5866ZM77.1747 51.1591C77.6412 51.1591 78.0575 51.2339 78.4323 51.3741L79.133 49.5009C78.5154 49.2699 77.8597 49.1591 77.1747 49.1591V51.1591ZM78.4409 51.3773C78.8078 51.5107 79.1194 51.7082 79.386 51.9721L80.793 50.5506C80.3172 50.0797 79.7575 49.7279 79.1244 49.4977L78.4409 51.3773ZM79.3896 51.9756C79.647 52.2278 79.8641 52.5603 80.0279 52.9982L81.9011 52.2973C81.6482 51.6215 81.282 51.0298 80.7893 50.5471L79.3896 51.9756ZM80.0287 53.0003C80.1853 53.4159 80.277 53.9393 80.277 54.5909H82.277C82.277 53.7577 82.1604 52.9857 81.9003 52.2952L80.0287 53.0003ZM80.277 54.5909V55.2557H82.277V54.5909H80.277ZM81.277 54.2557H73.9077V56.2557H81.277V54.2557ZM74.9077 55.2557V53.7557H72.9077V55.2557H74.9077ZM73.9077 54.7557H78.9986V52.7557H73.9077V54.7557ZM79.9986 53.7557C79.9986 53.2578 79.8889 52.776 79.6426 52.3387L77.9001 53.3204C77.9567 53.421 77.9986 53.5566 77.9986 53.7557H79.9986ZM79.6426 52.3387C79.4014 51.9106 79.0596 51.5688 78.6315 51.3276L77.6498 53.0701C77.7596 53.132 77.8382 53.2106 77.9001 53.3204L79.6426 52.3387ZM78.646 51.336C78.2063 51.0784 77.718 50.9659 77.2145 50.9659V52.9659C77.4155 52.9659 77.5447 53.0087 77.6352 53.0617L78.646 51.336ZM77.2145 50.9659C76.6861 50.9659 76.1788 51.0905 75.7227 51.3641L76.7517 53.0791C76.8638 53.0118 77.008 52.9659 77.2145 52.9659V50.9659ZM75.7261 51.3621C75.2951 51.6183 74.9507 51.9715 74.7056 52.4091L76.4506 53.3863C76.5238 53.2557 76.6187 53.1582 76.7483 53.0811L75.7261 51.3621ZM74.7084 52.4041C74.46 52.8419 74.3394 53.3224 74.3339 53.8242L76.3337 53.8462C76.3358 53.6587 76.3781 53.5142 76.4478 53.3913L74.7084 52.4041ZM74.3338 53.8352V55.2614H76.3338V53.8352H74.3338ZM74.3338 55.2614C74.3338 55.8152 74.4361 56.3498 74.6802 56.8322L76.4647 55.9292C76.3906 55.7828 76.3338 55.5711 76.3338 55.2614H74.3338ZM74.6845 56.8407C74.9318 57.318 75.2927 57.7044 75.7602 57.9741L76.7597 56.2418C76.6363 56.1706 76.5388 56.0722 76.4604 55.9207L74.6845 56.8407ZM75.7602 57.9741C76.234 58.2475 76.7635 58.3636 77.3111 58.3636V56.3636C77.0481 56.3636 76.8768 56.3094 76.7597 56.2418L75.7602 57.9741ZM77.3111 58.3636C77.6742 58.3636 78.0305 58.3124 78.3708 58.1971L77.7287 56.3029C77.6219 56.3391 77.4859 56.3636 77.3111 56.3636V58.3636ZM78.3708 58.1971C78.7215 58.0782 79.0413 57.8922 79.3132 57.6332L77.9339 56.185C77.8877 56.229 77.8249 56.2703 77.7287 56.3029L78.3708 58.1971ZM79.3132 57.6332C79.5882 57.3714 79.7896 57.0567 79.9222 56.7069L78.0522 55.9976C78.0182 56.0873 77.9772 56.1438 77.9339 56.185L79.3132 57.6332ZM78.9214 57.3501L81.16 57.4978L81.2917 55.5022L79.0531 55.3544L78.9214 57.3501ZM80.2474 56.2933C80.1682 56.6684 80.011 56.9809 79.7753 57.2496L81.2787 58.5686C81.7475 58.0342 82.0562 57.4074 82.2043 56.7067L80.2474 56.2933ZM79.7749 57.2501C79.542 57.5158 79.2267 57.7413 78.8 57.9138L79.5494 59.7681C80.2288 59.4935 80.815 59.0978 81.2791 58.5681L79.7749 57.2501ZM78.8033 57.9124C78.3948 58.0759 77.8906 58.1705 77.2713 58.1705V60.1705C78.0914 60.1705 78.8562 60.0454 79.5461 59.7694L78.8033 57.9124Z" fill="url(#paint1_linear_0_1)" mask="url(#path-1-outside-1_0_1)"/>
<defs>
<linearGradient id="paint0_linear_0_1" x1="10" y1="57.5" x2="86" y2="57.5" gradientUnits="userSpaceOnUse">
<stop stop-color="#3A20D7"/>
<stop offset="1" stop-color="#27FD89"/>
</linearGradient>
<linearGradient id="paint1_linear_0_1" x1="10" y1="57.5" x2="86" y2="57.5" gradientUnits="userSpaceOnUse">
<stop stop-color="white"/>
<stop offset="1" stop-color="#666666"/>
</linearGradient>
</defs>
</svg>
